<svg width="77" height="78" viewBox="0 0 77 78" fill="none" xmlns="http://www.w3.org/2000/svg">
<path d="M2.21151 35.384C0.402107 36.1882 3.05176e-05 37.6936 3.05176e-05 38.3997C3.05176e-05 39.0353 0.429014 40.0619 1.60837 41.0132C8.44388 44.8331 26.3852 53.7252 34.5797 56.6918C36.3891 57.3468 37.7869 57.4989 38.1985 57.4989C38.5943 57.4989 40.1058 57.5359 42.0183 56.8957C49.859 53.478 67.7853 45.6373 75.1906 41.4153C76.6012 40.6112 76.86 39.2535 76.799 38.3997C76.738 37.5459 76.3969 36.1108 74.3864 35.183C66.5457 31.5642 49.2559 23.3213 42.4204 20.3057C40.1824 19.4861 38.3995 19.5015 38.3995 19.5015C38.3995 19.5015 36.943 19.4529 35.1828 20.1046C28.1242 22.7182 8.24284 32.3683 2.21151 35.384Z" fill="black"/>
<path fill-rule="evenodd" clip-rule="evenodd" d="M10.217 50.9634C18.3497 55.0727 28.8485 60.0459 34.5796 62.1208C36.389 62.7758 37.7869 62.9279 38.1984 62.9279C38.2166 62.9279 38.2372 62.928 38.2601 62.928C38.7343 62.9298 40.1938 62.9354 42.0183 62.3247C47.6291 59.879 58.4044 55.1684 66.7933 51.1397C69.7241 52.5158 72.3683 53.7536 74.3864 54.6851C76.1958 55.6895 76.7989 57.0984 76.7989 57.9018C76.7989 58.7051 76.5979 59.9114 75.1906 60.9174C67.7853 65.1394 49.859 72.9801 42.0183 76.3979C40.1938 77.0085 38.7343 77.003 38.2601 77.0012C38.2372 77.0011 38.2166 77.001 38.1984 77.001C37.7869 77.001 36.389 76.8489 34.5796 76.1939C26.3851 73.2273 8.44385 64.3352 1.60834 60.5154C4.55068e-06 59.6166 2.13628e-06 58.7068 0 57.9018V57.9018C-2.13621e-06 57.0968 0.603133 55.6903 2.21148 54.8861C3.946 54.0189 6.82599 52.6029 10.217 50.9634Z" fill="black"/>
<rect x="61.5196" y="0.000183105" width="6.83551" height="24.1253" rx="3.41775" fill="black"/>
<rect x="52.8747" y="15.4806" width="6.83551" height="24.1253" rx="3.41775" transform="rotate(-90 52.8747 15.4806)" fill="black"/>
</svg>
