<svg version="1.1" xmlns="http://www.w3.org/2000/svg" x="0" y="0" viewBox="0 0 19 13" style="enable-background:new 0 0 19 13" xml:space="preserve"><g transform="translate(0 -3)"><path d="M0 5.5h19v1H0z"/><path d="M0 12.5h19v1H0z"/><g class="-toggle-top"><circle cx="3" cy="3" r="3" style="fill:#fff" transform="translate(3 3)"/><path d="M3 6C1.3 6 0 4.7 0 3s1.3-3 3-3 3 1.3 3 3-1.3 3-3 3zm0-5c-1.1 0-2 .9-2 2s.9 2 2 2 2-.9 2-2-.9-2-2-2z" transform="translate(3 3)"/></g><g class="-toggle-bottom"><circle cx="3" cy="3" r="3" transform="translate(10 10)"/><path d="M3 6C1.3 6 0 4.7 0 3s1.3-3 3-3 3 1.3 3 3-1.3 3-3 3zm0-5c-1.1 0-2 .9-2 2s.9 2 2 2 2-.9 2-2-.9-2-2-2z" transform="translate(10 10)"/></g></g></svg>